<svg width="160" height="160" viewBox="0 0 160 160" fill="none" xmlns="http://www.w3.org/2000/svg">
<g filter="url(#filter0_d_812_15)">
<rect x="4" width="152" height="152" rx="18" fill="url(#paint0_linear_812_15)"/>
</g>
<path d="M40.7814 82.8373C35.6697 75.6115 40.751 65.6147 49.6012 65.4857L87.8956 64.9277C91.522 64.8748 94.9414 66.6129 97.036 69.5737L119.154 100.84C124.266 108.065 119.185 118.062 110.334 118.191L72.0401 118.749C68.4137 118.802 64.9943 117.064 62.8997 114.103L40.7814 82.8373Z" fill="#F5F5F2"/>
<path d="M49.8907 87.1165C41.0396 87.082 35.8519 77.14 40.8862 69.86L62.6695 38.36C64.7324 35.377 68.133 33.6025 71.7598 33.6166L110.058 33.7659C118.909 33.8004 124.097 43.7424 119.062 51.0224L97.2791 82.5225C95.2163 85.5055 91.8156 87.28 88.1888 87.2658L49.8907 87.1165Z" fill="#B1D2EE"/>
<defs>
<filter id="filter0_d_812_15" x="0" y="0" width="160" height="160" filterUnits="userSpaceOnUse" color-interpolation-filters="sRGB">
<feFlood flood-opacity="0" result="BackgroundImageFix"/>
<feColorMatrix in="SourceAlpha" type="matrix" values="0 0 0 0 0 0 0 0 0 0 0 0 0 0 0 0 0 0 127 0" result="hardAlpha"/>
<feOffset dy="4"/>
<feGaussianBlur stdDeviation="2"/>
<feComposite in2="hardAlpha" operator="out"/>
<feColorMatrix type="matrix" values="0 0 0 0 0 0 0 0 0 0 0 0 0 0 0 0 0 0 0.25 0"/>
<feBlend mode="normal" in2="BackgroundImageFix" result="effect1_dropShadow_812_15"/>
<feBlend mode="normal" in="SourceGraphic" in2="effect1_dropShadow_812_15" result="shape"/>
</filter>
<linearGradient id="paint0_linear_812_15" x1="19.96" y1="22.04" x2="165.88" y2="139.08" gradientUnits="userSpaceOnUse">
<stop offset="0.0001" stop-color="#9E57FF"/>
<stop offset="1" stop-color="#7ED0FA"/>
</linearGradient>
</defs>
</svg>
